<svg xmlns="http://www.w3.org/2000/svg" xmlns:svg="http://www.w3.org/2000/svg" id="svg2" width="64" height="64" version="1.1"><metadata id="metadata7"/><g id="layer1" transform="translate(0,-988.36218)" style="display:inline"><path style="display:inline;opacity:1;fill:#fff;fill-opacity:1;fill-rule:nonzero;stroke:none;stroke-width:2;stroke-linecap:square;stroke-linejoin:round;stroke-miterlimit:4;stroke-dasharray:none;stroke-dashoffset:8.54999828;stroke-opacity:1" id="path3382-5" d="M 32,7.3632812 C 18.393448,7.3631167 7.3631167,18.393448 7.3632812,32 7.3631166,45.606552 18.393448,56.636883 32,56.636719 45.606552,56.636884 56.636884,45.606552 56.636719,32 56.636883,18.393448 45.606552,7.3631166 32,7.3632812 Z M 20.535156,18.560547 c 3.05751,-7.58e-4 5.53665,2.434658 5.53711,5.439453 -4.6e-4,3.004795 -2.4796,5.440211 -5.53711,5.439453 C 17.478409,29.43915 15.00046,27.004045 15,24 c 4.6e-4,-3.004045 2.478409,-5.43915 5.535156,-5.439453 z m 22.41211,0 c 3.056747,3.03e-4 5.534696,2.435408 5.535156,5.439453 -4.6e-4,3.004045 -2.478409,5.43915 -5.535156,5.439453 -3.05751,7.58e-4 -5.53665,-2.434658 -5.53711,-5.439453 4.6e-4,-3.004795 2.4796,-5.440211 5.53711,-5.439453 z M 16.880859,37.226562 c 11.25493,8.816267 20.991069,6.241604 30.238282,0 C 44.805276,43.51679 38.763659,47.703231 32,47.703125 25.236341,47.703231 19.194724,43.51679 16.880859,37.226562 Z" transform="translate(0,988.36218)"/></g></svg>