<svg xmlns="http://www.w3.org/2000/svg" xmlns:svg="http://www.w3.org/2000/svg" xmlns:xlink="http://www.w3.org/1999/xlink" id="svg2" width="64" height="64" version="1.1"><defs id="defs4"><linearGradient id="linearGradient962"><stop style="stop-color:#fe2300;stop-opacity:1" id="stop958" offset="0"/><stop style="stop-color:#f82000;stop-opacity:1" id="stop960" offset="1"/></linearGradient><linearGradient id="SVGID_1_" x1="12.806" x2="73.193" y1="12.807" y2="73.194" gradientTransform="translate(-24.964286,937.39789)" gradientUnits="userSpaceOnUse"><stop id="stop4163" offset=".005" style="stop-color:#1e9bff"/><stop id="stop4165" offset="1" style="stop-color:#00c8de"/></linearGradient><linearGradient id="F" x1="86.13" x2="84.64" y1="105.11" y2="20.895" gradientTransform="matrix(0.25901877,-0.10503029,0.10502386,0.25903461,1.643477,1002.7673)" gradientUnits="userSpaceOnUse" xlink:href="#B"/><linearGradient id="B"><stop id="S" stop-color="#fff" stop-opacity=".679"/><stop id="T" offset="1" stop-opacity=".333"/></linearGradient><linearGradient id="I" x2="0" y1="2.39" y2="43.61" gradientTransform="matrix(0.86137996,0,0,0.86143266,4.164053,992.55162)" gradientUnits="userSpaceOnUse" xlink:href="#7"/><linearGradient id="7"><stop id="J" stop-color="#fff" stop-opacity=".8"/><stop id="K" offset="1" stop-color="#fff" stop-opacity="0"/></linearGradient><radialGradient id="G" cx="25.25" cy="41.18" r="22" gradientTransform="matrix(0.55866295,-1.635037,1.4491366,0.4952046,-42.065233,1047.3615)" gradientUnits="userSpaceOnUse" xlink:href="#C"/><linearGradient id="C" x2="0" y1="3.1" y2="122.9" gradientUnits="userSpaceOnUse"><stop id="U" stop-color="#888a85"/><stop id="V" offset="1" stop-color="#babdb6"/></linearGradient><linearGradient id="H" x1="2.35" x2="45.65" y1="1.35" y2="44.65" gradientTransform="matrix(0.86137996,0,0,0.86143263,4.1640529,992.55159)" gradientUnits="userSpaceOnUse" xlink:href="#8"/><linearGradient id="8"><stop id="L" stop-color="#888a85"/><stop id="M" offset=".78" stop-color="#555753"/><stop id="N" offset="1" stop-color="#2e3436"/></linearGradient><linearGradient id="linearGradient964" x1="52.604" x2="-3.203" y1="1041.996" y2="984.359" gradientUnits="userSpaceOnUse" xlink:href="#linearGradient962"/></defs><metadata id="metadata7"/><g id="layer1" transform="translate(0,-988.36218)" style="display:inline"><g id="g4227" transform="matrix(1.1117426,0,0,1.1116746,-3.6125428,-113.8247)" style="display:inline;opacity:1"><rect style="opacity:1;fill:url(#linearGradient964);fill-opacity:1;fill-rule:nonzero;stroke:none;stroke-width:.89951628;stroke-linecap:round;stroke-linejoin:bevel;stroke-miterlimit:4;stroke-dasharray:none;stroke-dashoffset:0;stroke-opacity:.62745098;paint-order:markers fill stroke" id="rect4573" width="57.567" height="57.571" x="3.249" y="991.465"/><path style="opacity:1;fill:#fff;fill-opacity:1;fill-rule:nonzero;stroke:none;stroke-width:.99999988;stroke-linecap:round;stroke-linejoin:bevel;stroke-miterlimit:4;stroke-dasharray:none;stroke-dashoffset:0;stroke-opacity:.62745098;paint-order:markers fill stroke" id="path4632" d="M 0 9.4980469 L 0 42.212891 A 13.858244 18.42331 0 0 0 7.5 25.849609 A 13.858244 18.42331 0 0 0 0 9.4980469 z" transform="matrix(0.89948878,0,0,0.89954381,3.2494417,991.46538)"/><path style="opacity:1;fill:none;fill-opacity:1;fill-rule:nonzero;stroke:#fff;stroke-width:6;stroke-linecap:round;stroke-linejoin:bevel;stroke-miterlimit:4;stroke-dasharray:none;stroke-dashoffset:0;stroke-opacity:1;paint-order:markers fill stroke" id="path4663" d="m 12.94521,998.12717 c 2.422868,3.34563 5.169562,8.82983 5.169565,16.62733 6e-6,14.5189 -11.439829,27.0954 -24.1043454,27.0954"/><path style="opacity:1;fill:none;fill-opacity:1;fill-rule:nonzero;stroke:#fff;stroke-width:5.39709711;stroke-linecap:round;stroke-linejoin:bevel;stroke-miterlimit:4;stroke-dasharray:none;stroke-dashoffset:0;stroke-opacity:1;paint-order:markers fill stroke" id="rect4698" d="m 17.840982,1009.0482 h 12.37118 c 3.371719,0 6.086135,2.2455 6.086135,5.2924 v 0.4928 c 0,3.0469 -2.714416,5.4479 -6.086135,5.4479 h -12.37118"/><path style="display:inline;opacity:1;fill:none;fill-opacity:1;fill-rule:nonzero;stroke:#fff;stroke-width:5.39709711;stroke-linecap:round;stroke-linejoin:bevel;stroke-miterlimit:4;stroke-dasharray:none;stroke-dashoffset:0;stroke-opacity:1;paint-order:markers fill stroke" id="rect4698-5" d="m 13.42057,997.81663 h 17.281249 c 9.122684,0 16.466936,6.76187 16.466936,15.93687 v 1.4839 c 0,9.175 -7.344252,16.4049 -16.466936,16.4049 h -5.674704"/><path style="fill:none;fill-rule:evenodd;stroke:#fff;stroke-width:5.39709759;stroke-linecap:round;stroke-linejoin:miter;stroke-miterlimit:4;stroke-dasharray:none;stroke-opacity:1;opacity:1" id="path924" d="m 47.839546,1042.9176 c -3.743493,-3.8755 -7.486972,-7.751 -11.230434,-11.6265" transform="translate(0.10998825,-0.18332495)"/><path style="display:inline;opacity:1;fill:none;fill-rule:evenodd;stroke:#fff;stroke-width:5.39709759;stroke-linecap:round;stroke-linejoin:miter;stroke-miterlimit:4;stroke-dasharray:none;stroke-opacity:1" id="path924-2" d="m 47.796593,1042.5243 c -0.01626,-3.7444 -0.03252,-7.4898 -0.04877,-11.2332" transform="translate(-22.720708,0.3512)"/></g></g></svg>