<svg xmlns="http://www.w3.org/2000/svg" xmlns:svg="http://www.w3.org/2000/svg" id="svg2" width="64" height="64" version="1.1"><metadata id="metadata7"/><g id="layer1" transform="translate(0,-988.36218)" style="display:inline"><path style="display:inline;opacity:1;fill:#fff;fill-opacity:1;fill-rule:nonzero;stroke:none;stroke-width:1;stroke-linecap:square;stroke-linejoin:round;stroke-miterlimit:4;stroke-dasharray:none;stroke-dashoffset:8.54999828;stroke-opacity:1" id="path3382" d="m 32,995.86217 a 24.5,24.5 0 0 0 -24.5,24.50003 24.5,24.5 0 0 0 24.5,24.5 24.5,24.5 0 0 0 24.5,-24.5 A 24.5,24.5 0 0 0 32,995.86217 Z m 14.779006,14.91753 a 1.5639862,1.5639862 0 0 1 1.256358,2.5656 l -12.738697,15.7299 0.01629,-0.022 c 0,0 -0.580151,0.7483 -1.478307,1.4824 -0.898158,0.7342 -2.183673,1.5883 -3.864778,1.5883 -1.740865,10e-5 -3.070987,-0.9063 -4.00935,-1.684 -0.938364,-0.7776 -1.549576,-1.5659 -1.549576,-1.5659 a 1.5639862,1.5639862 0 0 1 -0.01425,-0.018 l -6.642203,-8.7863 a 1.5640501,1.5640501 0 0 1 2.494389,-1.8876 l 6.627951,8.768 c 0,0 0.41978,0.5368 1.079205,1.0833 0.659425,0.5465 1.494679,0.9632 2.013838,0.9631 0.501735,0 1.271132,-0.381 1.883519,-0.8817 0.612387,-0.5005 0.99572,-0.9855 0.99572,-0.9855 a 1.5639862,1.5639862 0 0 1 0.01629,-0.02 l 12.738697,-15.7299 a 1.5639862,1.5639862 0 0 1 1.174909,-0.5966 l 0,0 z"/></g></svg>