<svg xmlns="http://www.w3.org/2000/svg" xmlns:svg="http://www.w3.org/2000/svg" id="svg2" width="64" height="64" version="1.1"><metadata id="metadata7"/><g id="layer1" transform="translate(0,-988.36218)"><path style="fill:#fff;fill-opacity:.99465176;stroke:none" id="rect3040" d="M 14.072266 8 C 10.708694 8 8 10.708706 8 14.072266 L 8 49.927734 C 8 53.291234 10.708694 56 14.072266 56 L 49.927734 56 C 53.291306 56 56 53.291234 56 49.927734 L 56 14.072266 C 56 10.708706 53.291306 8 49.927734 8 L 14.072266 8 z M 17.287109 15.107422 C 34.645411 15.107422 48.740284 29.359681 48.740234 46.863281 A 2.0002 2.0002 0 1 1 44.740234 46.863281 C 44.740274 31.499481 32.461401 19.107422 17.287109 19.107422 A 2.0002 2.0002 0 1 1 17.287109 15.107422 z M 17.289062 25.880859 C 28.759145 25.880859 38.080078 35.310534 38.080078 46.865234 A 2.0002 2.0002 0 1 1 34.080078 46.865234 C 34.080078 37.450334 26.57517 29.880859 17.289062 29.880859 A 2.0002 2.0002 0 1 1 17.289062 25.880859 z M 20.685547 38.134766 A 5.2721581 5.3303046 0 0 1 25.958984 43.466797 A 5.2721581 5.3303046 0 0 1 20.685547 48.796875 A 5.2721581 5.3303046 0 0 1 15.414062 43.466797 A 5.2721581 5.3303046 0 0 1 20.685547 38.134766 z" transform="translate(0,988.36218)"/></g></svg>