<svg xmlns="http://www.w3.org/2000/svg" xmlns:svg="http://www.w3.org/2000/svg" id="svg2" width="64" height="64" version="1.1"><metadata id="metadata7"/><g id="layer1" transform="translate(0,-988.36218)"><path style="fill:#fff;fill-opacity:.99465182;stroke:none" id="rect3040" d="M 14.0625 8 C 10.698928 8 8 10.698929 8 14.0625 L 8 49.9375 C 8 53.301071 10.698928 56 14.0625 56 L 49.9375 56 C 53.301072 56 56 53.301071 56 49.9375 L 56 14.0625 C 56 10.698929 53.301072 8 49.9375 8 L 14.0625 8 z M 31.96875 16.46875 C 33.111666 16.498776 36.542008 25.830442 37.46875 26.5 C 38.357824 27.142343 47.969821 27.198302 48.28125 28.25 C 48.605874 29.346256 40.787908 35.505461 40.4375 36.59375 C 40.101334 37.637804 43.028987 46.785071 42.125 47.40625 C 41.182713 48.053747 32.924556 42.528208 31.78125 42.53125 C 30.684414 42.534168 22.870124 48.136538 22 47.46875 C 21.093011 46.772669 23.793694 37.211409 23.4375 36.125 C 23.095784 35.082749 15.352529 29.377645 15.71875 28.34375 C 16.100487 27.266051 26.014334 26.893229 26.9375 26.21875 C 27.823144 25.571685 30.872289 16.439944 31.96875 16.46875 z" transform="translate(0,988.36218)"/></g></svg>