<svg xmlns="http://www.w3.org/2000/svg" xmlns:svg="http://www.w3.org/2000/svg" id="svg2" width="64" height="64" version="1.1"><metadata id="metadata7"/><g id="layer1" transform="translate(0,-988.36218)"><path style="fill:#fff;fill-opacity:.99465176;stroke:none" id="rect3040-1" d="M 14.0625 8 C 10.698928 8 8 10.698929 8 14.0625 L 8 49.9375 C 8 53.301071 10.698928 56 14.0625 56 L 49.9375 56 C 53.301072 56 56 53.301071 56 49.9375 L 56 14.0625 C 56 10.698929 53.301072 8 49.9375 8 L 14.0625 8 z M 25.03125 18.34375 C 25.319927 18.34875 25.617251 18.37125 25.90625 18.40625 C 29.51144 18.84405 31.198532 20.8416 32 22.5625 C 32.801474 20.8416 34.488549 18.84405 38.09375 18.40625 C 47.34164 17.28315 56.967447 31.7096 32.0625 46.6875 C 32.03605 46.6395 31.96395 46.6395 31.9375 46.6875 C 7.8108343 32.1776 16.082356 18.18285 25.03125 18.34375 z" transform="translate(0,988.36218)"/></g></svg>